<?xml version="1.0" encoding="UTF-8" standalone="no"?>
<svg id="svg2" xmlns:rdf="http://www.w3.org/1999/02/22-rdf-syntax-ns#" xmlns="http://www.w3.org/2000/svg" enable-background="new 0 0 100 100" xml:space="preserve" height="100px" width="100px" version="1.1" y="0px" x="0px" xmlns:cc="http://creativecommons.org/ns#" xmlns:dc="http://purl.org/dc/elements/1.1/" viewBox="0 0 100 100"><g id="Your_Icon"><path id="path6" d="M50,0l-47,27v3h94v-3l-47-27zm0,6c5.523,0,10,4.477,10,10s-4.477,10-10,10-10-4.477-10-10,4.477-10,10-10z"/><path id="path12" d="M23.101,44.846c1.05,0,1.899-0.86,1.899-1.922,0-1.063-0.849-1.924-1.899-1.924h-15.201c-1.0497,0-1.9004,0.861-1.9004,1.924,0,1.062,0.8507,1.922,1.9004,1.922h1.9004v42.307h-1.9004c-1.0497,0-1.9004,0.86-1.9004,1.923,0,1.062,0.8507,1.924,1.9004,1.924h15.2c1.0504,0,1.8994-0.862,1.8994-1.924,0-1.063-0.849-1.923-1.899-1.923h-1.8998v-42.307h1.8994z"/><path id="path12-1" d="M46.101,44.846c1.05,0,1.899-0.86,1.899-1.922,0-1.063-0.849-1.924-1.899-1.924h-15.201c-1.0494,0-1.9004,0.861-1.9004,1.924,0,1.0625,0.85067,1.9225,1.9004,1.9225h1.9004v42.307h-1.8996c-1.0494,0-1.9004,0.86-1.9004,1.923,0,1.062,0.851,1.924,1.9,1.924h15.201c1.0504,0,1.8994-0.862,1.8994-1.924,0-1.063-0.849-1.923-1.899-1.923h-1.8998v-42.307h1.8994z"/><path id="path12-1-6" d="M69.101,44.846c1.05,0,1.899-0.86,1.899-1.922,0-1.063-0.849-1.924-1.899-1.924h-15.201c-1.0494,0-1.9004,0.861-1.9004,1.924,0,1.0625,0.85067,1.9225,1.9004,1.9225h1.9004v42.307h-1.8996c-1.0494,0-1.9004,0.86-1.9004,1.923,0,1.062,0.851,1.924,1.9,1.924h15.201c1.0504,0,1.8994-0.862,1.8994-1.924,0-1.063-0.849-1.923-1.899-1.923h-1.8998v-42.307h1.8994z"/><path id="path12-1-0" d="M92.101,44.846c1.05,0,1.899-0.86,1.899-1.922,0-1.063-0.849-1.924-1.899-1.924h-15.201c-1.0494,0-1.9004,0.861-1.9004,1.924,0,1.0625,0.85067,1.9225,1.9004,1.9225h1.9004v42.307h-1.8996c-1.0494,0-1.9004,0.86-1.9004,1.923,0,1.062,0.851,1.924,1.9,1.924h15.201c1.0504,0,1.8994-0.862,1.8994-1.924,0-1.063-0.849-1.923-1.899-1.923h-1.8998v-42.307h1.8994z"/><rect id="rect3062" height="5" width="94" y="95" x="3" fill="#000"/><path id="path3" d="M54.932,15.849c-0.711-0.696-2.048-1.261-4.013-1.697v-3.9329c0.79277,0.28116,1.2844,0.81684,1.4725,1.6088l3.1042-0.33282c-0.213-1.005-0.704-1.8081-1.472-2.4081-0.769-0.601-1.804-0.9655-3.105-1.0908v-0.9961h-1.7786v0.99612c-1.4075,0.1125-2.533,0.54378-3.3802,1.2915-0.84719,0.74754-1.2688,1.6711-1.2688,2.7725,0,1.0863,0.37372,2.0099,1.1208,2.7727,0.74964,0.7605,1.9257,1.3289,3.5285,1.7051v4.214c-0.44-0.172-0.841-0.454-1.2-0.844-0.361-0.389-0.607-0.853-0.738-1.39l-3.202,0.284c0.2458,1.3207,0.80979,2.3427,1.692,3.0668,0.88458,0.72522,2.0342,1.1578,3.4489,1.2996v1.831h1.7786v-1.8832c1.595-0.18784,2.841-0.69584,3.735-1.5288,0.897-0.83,1.345-1.854,1.345-3.07,0-1.085-0.357-1.975-1.068-2.669zm-5.791-2.18c-0.533-0.187-0.928-0.432-1.191-0.739-0.261-0.305-0.392-0.635-0.392-0.99,0-0.39024,0.14327-0.74538,0.43016-1.0676,0.28432-0.31986,0.67006-0.54954,1.1521-0.68436v3.4816zm3.2753,6.5263c-0.38447,0.37134-0.88329,0.6057-1.4967,0.6984v-3.9222c0.73742,0.17226,1.2653,0.423,1.5894,0.74754,0.32171,0.32472,0.48311,0.71496,0.48311,1.1624,0.000174,0.504-0.19159,0.93978-0.57583,1.3138z"/><rect id="rect3062-8" height="4" width="94" y="33" x="3" fill="#000"/></g><metadata id="metadata3145"><rdf:RDF><cc:Work rdf:about=""><dc:title/></cc:Work></rdf:RDF></metadata></svg>
