<?xml version="1.0" encoding="UTF-8" standalone="no"?>
<svg id="svg2" xmlns:rdf="http://www.w3.org/1999/02/22-rdf-syntax-ns#" xmlns="http://www.w3.org/2000/svg" enable-background="new 0 0 100 100" xml:space="preserve" height="100px" width="100px" version="1.1" y="0px" x="0px" xmlns:cc="http://creativecommons.org/ns#" xmlns:dc="http://purl.org/dc/elements/1.1/" viewBox="0 0 100 100"><g id="Your_Icon"><g id="g168"><g id="g174" transform="matrix(1.4285714,0,0,1.4285714,-21.428571,-21.428571)"><g id="g176"><path id="path178" fill="#000" d="m41.602,66.292c0.154-0.68,0.384-1.582,0.692-2.703l4.15-15.159c0.045-0.176,0.082-0.352,0.115-0.528,0.033-0.175,0.05-0.34,0.05-0.494,0-0.9-0.285-1.46-0.855-1.681-0.571-0.219-1.613-0.362-3.127-0.428v-1.78c1.266-0.088,3.104-0.269,5.514-0.544,2.411-0.274,4.118-0.511,5.121-0.708l2.88-0.561-5.24,19.214c-0.439,1.647-0.735,2.79-0.89,3.428-0.395,1.626-0.594,2.681-0.594,3.163,0,0.484,0.11,0.797,0.331,0.939,0.219,0.144,0.461,0.215,0.726,0.215,0.683,0,1.53-0.582,2.543-1.747,1.014-1.164,1.906-2.384,2.677-3.658l1.483,0.956c-2.2,3.229-3.884,5.404-5.051,6.525-1.914,1.846-3.959,2.769-6.137,2.769-1.232,0-2.338-0.378-3.316-1.138-0.979-0.757-1.468-1.916-1.468-3.477,0-0.548,0.132-1.416,0.396-2.603zm15.873-38.329c0.879,0.879,1.319,1.945,1.319,3.197s-0.44,2.324-1.319,3.213c-0.879,0.89-1.944,1.335-3.197,1.335-1.252,0-2.323-0.445-3.213-1.335s-1.335-1.961-1.335-3.213,0.445-2.317,1.335-3.197c0.89-0.878,1.961-1.318,3.213-1.318s2.318,0.439,3.197,1.318z"/></g></g><path id="path3219" fill="#000" d="M50-2E-7c-27.614,0-50,22.386-50,50s22.386,50,50,50,50-22.386,50-50-22.386-50-50-50zm0,7c23.748,0,43,19.252,43,43s-19.252,43-43,43-43-19.252-43-43,19.252-43,43-43z"/></g></g><metadata id="metadata3563"><rdf:RDF><cc:Work rdf:about=""><dc:title/></cc:Work></rdf:RDF></metadata></svg>
