<?xml version="1.0" encoding="UTF-8" standalone="no"?>
<svg id="svg2" xmlns:rdf="http://www.w3.org/1999/02/22-rdf-syntax-ns#" xmlns="http://www.w3.org/2000/svg" y="0px" xml:space="preserve" height="100" viewBox="0 0 100 100" width="100" version="1.1" enable-background="new 0 0 100 100" x="0px" xmlns:cc="http://creativecommons.org/ns#" xmlns:dc="http://purl.org/dc/elements/1.1/"><metadata id="metadata3051"><rdf:RDF><cc:Work rdf:about=""><dc:title/><dc:format>image/svg+xml</dc:format><dc:type rdf:resource="http://purl.org/dc/dcmitype/StillImage"/></cc:Work></rdf:RDF></metadata><path id="path3096" fill="#000" d="M50,0c-27.614,0-50,22.386-50,50s22.386,50,50,50,50-22.386,50-50-22.386-50-50-50zm-5,15.375v14.625c0,2.761,2.239,5,5,5s5-2.239,5-5v-14.625c15.337,2.189,27.436,14.288,29.625,29.625h-14.625c-2.761,0-5,2.239-5,5s2.239,5,5,5h14.625c-2.189,15.337-14.288,27.436-29.625,29.625v-14.625c0-2.761-2.239-5-5-5s-5,2.239-5,5v14.625c-15.337-2.189-27.436-14.288-29.625-29.625h14.625c2.761,0,5-2.239,5-5s-2.239-5-5-5h-14.625c2.189-15.337,14.288-27.436,29.625-29.625z"/></svg>
