<?xml version="1.0" encoding="UTF-8" standalone="no"?>
<svg id="Calque_1" xmlns:rdf="http://www.w3.org/1999/02/22-rdf-syntax-ns#" xmlns="http://www.w3.org/2000/svg" y="0px" xml:space="preserve" height="100" viewBox="0 0 100 100" width="100" version="1.1" enable-background="new 0 0 100 100" x="0px" xmlns:cc="http://creativecommons.org/ns#" xmlns:dc="http://purl.org/dc/elements/1.1/"><g id="g5" fill="#000" transform="matrix(0.99958018,0,0,0.99958018,0.02898783,3.6756001e-6)"><path id="path7" transform="matrix(1.00042,0,0,1.00042,-0.029,0)" d="M50,0c-27.614,0-50,22.386-50,50s22.386,50,50,50,50-22.386,50-50c0-2.589-0.183-5.142-0.562-7.625-0.253-1.655-0.589-3.277-1-4.875-5.55-21.567-25.138-37.5-48.438-37.5zm0,7c12.293,0,23.382,5.168,31.219,13.438l-6.907,4.218c-1.458-1.929-3.768-3.156-6.374-3.156-4.413,0-8,3.557-8,7.969l3.406,1.219-0.375,1.031-1.907-0.563-3.156,2.188,2.032,4.125h1.718c1.885,0,3.438,1.522,3.438,3.406v4.5h3.437l5.188-2.594c1.44,0,2.625,1.154,2.625,2.594h-7.813l8.219,10.937,6.531-6.531h3.313c1.373,0,2.468,1.126,2.468,2.5,0.068,1.316,1.138,2.375,2.469,2.375v6.032l0.125,0.062c-4.772,18.548-21.618,32.25-41.656,32.25-23.748,0-43-19.252-43-43,0-1.399,0.0569-2.791,0.1875-4.156l5.1875,7.718h4.5v-5.687h5.406c2.217,0,4-1.784,4-4h4.625l4.782-4.813v-4.437l-4.75-4.781h-4.844v3.968h-4.688c-2.498,0-4.531-2.032-4.531-4.531,0-2.498,2.033-4.531,4.531-4.531v-4.625h-2.312c7.818-8.084,18.771-13.125,30.906-13.125z"/><path id="path9" d="m21.747,62.381c0,2.938,2.381,5.314,5.317,5.314v17.537l4.507,2.205v-3.337l8.087-8.088v-3.902c2.936,0,5.316-2.381,5.316-5.315l0.018-3.787h-4.712l-9.219-9.391-14.196-0.027,4.864,5.005,0.018,3.786z"/><path id="path11" d="m53.146,44.278c3.748,0,6.787-3.039,6.787-6.787h-6.787v6.787z"/><path id="path13" d="M67.307,47.596h-16.593c-1.75,0-3.167,1.417-3.167,3.167v3.043c0,5.271,4.271,9.541,9.54,9.541h4.864v11.283l4.468,4.47h4.468v-4.922l4.524-4.523v-8.125c1.655,0,2.998-1.342,2.998-3h-2.886l-8.216-10.934z"/><path id="path15" d="m33.142,14.718-3.469,5.278,1.968,3.017,0.042,4.738,4.761,4.761,2.85-6.546c4.63,0,8.383-3.753,8.383-8.381l-14.535-2.867z"/><path id="path17" d="M72.695,76.385v2.715c1.5,0,2.716-1.218,2.716-2.715v-2.715c-1.499,0-2.716,1.215-2.716,2.715z"/><path id="path19" d="m54.504,33.344h3.395v-3.394c-1.876,0-3.395,1.52-3.395,3.394z"/></g><metadata id="metadata3049"><rdf:RDF><cc:Work rdf:about=""><dc:title/><dc:format>image/svg+xml</dc:format><dc:type rdf:resource="http://purl.org/dc/dcmitype/StillImage"/></cc:Work></rdf:RDF></metadata></svg>
