<?xml version="1.0" encoding="UTF-8" standalone="no"?>
<svg id="svg2" xmlns:rdf="http://www.w3.org/1999/02/22-rdf-syntax-ns#" xmlns="http://www.w3.org/2000/svg" enable-background="new 0 0 100 100" xml:space="preserve" height="100px" width="100px" version="1.1" y="0px" x="0px" xmlns:cc="http://creativecommons.org/ns#" xmlns:dc="http://purl.org/dc/elements/1.1/" viewBox="0 0 100 100"><metadata id="metadata3952"><rdf:RDF><cc:Work rdf:about=""><dc:title/></cc:Work></rdf:RDF></metadata><path id="rect3829" fill="#000" d="M42.5,10c-2.761,0-5,2.239-5,5v22.5h-22.5c-2.761,0-5,2.239-5,5v15c0,2.761,2.239,5,5,5h22.5v22.5c0,2.761,2.239,5,5,5h15c2.761,0,5-2.239,5-5v-22.5h22.5c2.761,0,5-2.239,5-5v-15c0-2.761-2.239-5-5-5h-22.5v-22.5c0-2.761-2.239-5-5-5h-15z"/></svg>
