<?xml version="1.0" encoding="UTF-8" standalone="no"?>
<svg id="Livello_1" xmlns:rdf="http://www.w3.org/1999/02/22-rdf-syntax-ns#" xmlns="http://www.w3.org/2000/svg" enable-background="new 0 0 100 100" xml:space="preserve" height="100px" viewBox="0 0 100 100" width="100px" version="1.1" y="0px" x="0px" xmlns:cc="http://creativecommons.org/ns#" xmlns:dc="http://purl.org/dc/elements/1.1/"><path id="path3" d="M50,0c-18.706,0-33.871,15.165-33.871,33.87,0,0.401,0.012,0.809,0.03,1.221,0.127,3.558,0.798,6.975,1.939,10.172,7.226,23.752,31.902,54.737,31.902,54.737s24.673-30.982,31.9-54.734c1.143-3.197,1.813-6.617,1.939-10.175,0.02-0.412,0.031-0.819,0.031-1.221,0.001-18.705-15.164-33.87-33.87-33.87zm0,50.459c-9.161,0-16.589-7.428-16.589-16.589,0-9.16,7.428-16.588,16.589-16.588,9.162,0,16.589,7.428,16.589,16.588,0,9.161-7.427,16.589-16.589,16.589z"/><metadata id="metadata3014"><rdf:RDF><cc:Work rdf:about=""><dc:title/></cc:Work></rdf:RDF></metadata></svg>
