<?xml version="1.0" encoding="UTF-8" standalone="no"?>
<svg id="Livello_1" xmlns:rdf="http://www.w3.org/1999/02/22-rdf-syntax-ns#" xmlns="http://www.w3.org/2000/svg" enable-background="new 0 0 100 100" xml:space="preserve" height="100px" viewBox="0 0 100 100" width="100px" version="1.1" y="0px" x="0px" xmlns:cc="http://creativecommons.org/ns#" xmlns:dc="http://purl.org/dc/elements/1.1/"><path id="path3" d="M50,0c-18.706,0-33.875,15.17-33.875,33.875,0,0.401,0.013,0.807,0.031,1.219,0.127,3.558,0.797,6.959,1.938,10.156,7.226,23.752,31.906,54.75,31.906,54.75s5.705-7.156,12.406-17.188h-6.281c-1.726,0-3.125-1.399-3.125-3.124v-9.376c0-1.725,1.399-3.124,3.125-3.124h11.063v-11.25c0-1.726,1.399-3.126,3.124-3.126h8.813c1.074-2.568,2.034-5.075,2.781-7.531,1.143-3.197,1.812-6.629,1.938-10.187,0.02-0.412,0.031-0.817,0.031-1.219,0.001-18.705-15.169-33.875-33.875-33.875zm0,17.281c9.162,0,16.594,7.434,16.594,16.594,0,9.161-7.432,16.594-16.594,16.594-9.161,0-16.594-7.433-16.594-16.594,0-9.16,7.433-16.594,16.594-16.594z"/><metadata id="metadata3014"><rdf:RDF><cc:Work rdf:about=""><dc:title/></cc:Work></rdf:RDF></metadata><path id="rect3829-8-5" d="m71.25,55c-1.3805,0-2.5,1.1195-2.5,2.5v11.25h-11.25c-1.3805,0-2.5,1.1195-2.5,2.5v7.5c0,1.3805,1.1195,2.5,2.5,2.5h11.25v11.25c0,1.3805,1.1195,2.5,2.5,2.5h7.5c1.3805,0,2.5-1.1195,2.5-2.5v-11.25h11.25c1.3805,0,2.5-1.1195,2.5-2.5v-7.5c0-1.3805-1.1195-2.5-2.5-2.5h-11.25v-11.25c0-1.3805-1.1195-2.5-2.5-2.5h-7.5z" fill="#000"/></svg>
